<?xml version="1.0" standalone="no"?>
<!DOCTYPE svg PUBLIC "-//W3C//DTD SVG 20010904//EN"
 "http://www.w3.org/TR/2001/REC-SVG-20010904/DTD/svg10.dtd">
<svg version="1.0" xmlns="http://www.w3.org/2000/svg"
 width="256.000000pt" height="256.000000pt" viewBox="0 0 256.000000 256.000000"
 preserveAspectRatio="xMidYMid meet">
<metadata>
Created by potrace 1.11, written by Peter Selinger 2001-2013
</metadata>
<g transform="translate(0.000000,256.000000) scale(0.100000,-0.100000)"
fill="#000000" stroke="none">
<path d="M0 1280 l0 -1280 165 0 165 0 0 108 c1 443 149 876 416 1219 35 45
68 85 74 88 5 3 60 -28 123 -70 70 -46 125 -75 141 -75 46 0 278 158 404 274
l62 58 43 -37 c70 -62 203 -213 268 -304 233 -328 359 -714 363 -1112 l1 -149
168 0 167 0 0 1280 0 1280 -1280 0 -1280 0 0 -1280z"/>
<path d="M1408 1195 c-103 -28 -196 -93 -248 -175 -87 -135 -92 -312 -14 -446
35 -60 125 -141 190 -171 71 -32 202 -45 275 -26 122 31 224 115 281 230 31
64 33 74 33 178 0 99 -3 116 -28 169 -90 193 -296 294 -489 241z m208 -154
c145 -66 208 -236 140 -375 -102 -208 -404 -204 -497 6 -28 63 -31 163 -7 219
24 55 87 119 143 145 64 30 161 32 221 5z"/>
<path d="M1474 970 c-46 -19 -68 -85 -44 -131 6 -10 24 -26 41 -34 59 -31 129
14 129 82 0 61 -70 107 -126 83z"/>
</g>
</svg>
